<svg xmlns="http://www.w3.org/2000/svg" viewBox="0 0 3000 1928" width="3000" height="1928"><g transform="translate(1110.0 242.14285714285714) rotate(0.0 115.71428571428567 153.21428571428572) scale(2.159110446496043 2.1557615617160866)"><svg width="107.187" height="142.144" viewBox="0 0 107.187 142.144"><ellipse cx="53.729" cy="71.128" fill="#fff" rx="36.038" ry="77.439" transform="matrix(.8324 -.5541 .5541 .8324 -30.4105 41.6905)"/><path d="M93.62 142.078c-8.626 0-21.451-4.979-29.106-8.697-10.954-5.322-31.469-17.46-45.779-38.959C4.345 72.804.958 49.383.221 37.347.034 34.314-1.34 7.55 7.493 1.67c8.837-5.88 32.993 5.716 35.721 7.058 10.819 5.325 31.118 17.487 45.51 39.106 14.311 21.498 17.592 45.107 18.273 57.268.619 11.029-.166 30.914-7.032 35.485-1.577 1.049-3.776 1.491-6.345 1.491zM14.346 11.964c-3.152 7.477-6.48 44.473 14.378 75.809 20.107 30.207 55.457 41.94 64.301 42.387 3-8.328 5.818-45.468-14.29-75.677C57.896 23.18 22.533 11.964 14.371 11.964h-.025z"/><path d="M96.643 141.593a6.004 6.004 0 0 1-5.521-3.644c-16.73-39.153-36.197-68.082-65.094-96.73a6 6 0 0 1 8.449-8.521C64.54 62.503 84.78 92.57 102.157 133.234a6 6 0 0 1-5.514 8.359z"/></svg></g><g transform="translate(1506.4285714285713 122.14285714285714) rotate(0.0 437.1428571428572 480.0) scale(2.137549941653968 2.131916793064164)"><svg width="409.013" height="450.299" viewBox="0 0 409.013 450.299"><path d="m178.113 6.002 224.905 122.622L230.9 444.309 5.996 321.688z" fill="#17adff"/><path d="M230.896 450.3a5.975 5.975 0 0 1-2.867-.733L3.128 326.949a6 6 0 0 1-2.396-8.14L172.845 3.128a6 6 0 0 1 8.14-2.396L405.886 123.35a6 6 0 0 1 2.396 8.14L236.169 447.171a6 6 0 0 1-5.273 3.129zM14.14 319.285l214.366 116.874 166.368-305.145L180.508 14.14z" fill="#17adff"/><g fill="#fff"><path d="M321.35 177.429a6 6 0 0 1-5.999-5.97c-.016-3.102-3.951-5.98-7.747-6.971-2.94-.768-6.192-.942-9.634-1.127-2.813-.151-5.723-.307-8.702-.797-9.963-1.639-17.225-7.152-19.424-14.748-.921-3.179-.805-6.195-.703-8.855.059-1.525.114-2.965-.047-4.164-.529-3.938-6.344-10.948-10.806-14.126-7.476-5.325-22.594-3.894-27.127-2.135a6 6 0 1 1-4.342-11.187c7.312-2.839 26.718-4.796 38.432 3.548 5.851 4.168 14.6 13.843 15.735 22.302.299 2.223.218 4.347.146 6.221-.077 2.006-.144 3.739.238 5.057 1.038 3.585 5.952 5.605 9.845 6.245 2.332.383 4.793.516 7.398.655 3.886.208 7.905.424 12.021 1.499 8.018 2.093 16.668 8.782 16.716 18.522a6 6 0 0 1-5.971 6.03l-.029.001zm-49.134 92.368a7.226 7.226 0 0 1-3.184-.735c-2.117-1.026-3.112-2.749-3.537-3.484a127.392 127.392 0 0 1-15.339-42.622c-.703-4.167-1.195-8.644-.045-13.158 1.534-6.024 5.817-10.611 11.179-11.967 3.763-.952 7.265-.158 9.57.521 7.089 2.09 10.244 6.548 12.549 9.804 1.266 1.788 2.266 3.2 3.749 4.227.613.425.936.503 4.197-.524 2.515-.792 5.653-1.773 9.485-1.599 3.59.168 6.543 1.01 9.028 2.572 4.896 3.075 7.801 9.135 7.58 15.812-.532 15.968-16.539 26.032-21.8 29.34a213.404 213.404 0 0 1-19.196 10.725c-1.471.725-2.888 1.088-4.236 1.088zm-7.321-60.404c-.253 0-.474.024-.662.071-1.007.255-2.078 1.672-2.492 3.296-.566 2.224-.311 4.886.248 8.198a115.398 115.398 0 0 0 12.15 35.482 201.687 201.687 0 0 0 15.124-8.616c10.681-6.716 15.978-13.12 16.192-19.579.077-2.316-.733-4.476-1.97-5.253-.468-.294-1.402-.662-3.205-.747-1.709-.083-3.383.447-5.32 1.058-3.589 1.13-9.011 2.836-14.631-1.054-3.226-2.232-5.16-4.965-6.714-7.161-1.905-2.69-3.055-4.314-6.147-5.226-1.062-.312-1.923-.469-2.573-.469z"/></g></svg></g><g transform="translate(1365.0 145.71428571428572) rotate(0.0 308.57142857142856 305.3571428571429) scale(2.148556786554809 2.1474836514958042)"><svg width="287.236" height="284.386" viewBox="0 0 287.236 284.386"><path d="M102.935 183.528c-2.959 13.582 53.943 87.451 74.886 94.858 0 0-1.704-50.057 10.055-63.675 7.226-11.724 77.703 2.907 93.361-6.329-28.343-14.609-62.247-55.238-62.247-55.238 7.235-8.668 44.335-19.855 45.931-27.511 0 0-28.394.033-30.899-8.544-3.946-13.509 10.558-72.389 21.453-90.461-17.757 11.402-76.206 27.56-89.826 23.995-8.645-2.263-9.411-30.646-9.411-30.646-7.608 1.816-17.744 39.213-26.204 46.687 0 0-41.577-32.742-56.975-60.664-8.79 15.911 7.822 85.949-3.69 93.498C56.085 111.64 6 111.348 6 111.348c7.997 20.727 84.176 74.642 96.935 72.18z" fill="#ff002a"/><path d="M177.82 284.385a6.004 6.004 0 0 1-2-.343c-15.851-5.606-41.615-37.451-49.134-47.077-10.192-13.049-25.925-34.734-29.212-48.108-13.934-3.624-37.577-20.044-48.325-27.873-9.929-7.232-42.787-32.029-48.747-47.476A5.998 5.998 0 0 1 6 105.349h.033c18.446.104 50.884-2.598 59.286-10.279.18-.165.369-.318.567-.459 3.086-4.075 1.243-27.233.139-41.105-2.042-25.661-2.942-41.858 1.78-50.406A6.004 6.004 0 0 1 73.058 0h.002a5.998 5.998 0 0 1 5.252 3.103c11.622 21.073 39.521 45.613 50.693 54.964 2.609-4.555 5.638-11.583 8.039-17.154 7.108-16.497 11.129-25.179 17.799-26.771a6.003 6.003 0 0 1 7.392 5.674c.305 10.958 2.803 22.972 5.183 25.064 11.342 2.535 66.724-11.684 84.814-23.3a6.002 6.002 0 0 1 8.381 8.147c-11.101 18.411-23.758 74.162-20.9 85.433 2.158 2.317 14.22 4.475 25.175 4.475h.029a6 6 0 0 1 5.877 7.224c-1.4 6.716-9.968 10.981-26.262 18.554-5.501 2.557-12.439 5.782-16.919 8.518 9.663 10.903 34.98 38.094 56.372 49.119a6 6 0 0 1 .3 10.501c-8.412 4.961-24.626 4.521-50.333 3.202-13.903-.712-37.109-1.902-41.094 1.301a6.075 6.075 0 0 1-.442.58c-7.447 8.625-9.227 41.103-8.599 59.549a5.996 5.996 0 0 1-5.997 6.202zm-68.998-99.699c-.144 3.943 8.665 21.191 28.173 45.979 12.735 16.181 25.648 29.831 34.735 37.017.19-16.19 1.91-45.141 11.326-56.564 5.685-8.276 22.544-7.835 51.51-6.351 9.671.496 21.515 1.102 30.645.72-25.171-17.918-49.626-47.057-50.829-48.5a6 6 0 0 1 0-7.689c4.238-5.078 13.902-9.569 25.092-14.77 2.552-1.186 5.752-2.673 8.842-4.199-7.851-1.229-17.801-3.844-20.055-11.559-3.034-10.391 2.547-36.055 5.088-46.606 2.479-10.294 5.964-22.523 9.812-32.872-10.235 4.139-22.363 7.969-32.583 10.736-10.477 2.837-35.977 9.139-46.45 6.398-7.774-2.035-10.669-11.904-12.119-19.717-1.437 3.13-2.832 6.368-3.945 8.951-4.883 11.333-9.101 21.12-14.058 25.5a6 6 0 0 1-7.685.217c-1.477-1.163-31.298-24.782-49.919-49.439-.124 9.138.816 20.959 1.585 30.613 2.302 28.91 3.218 45.748-4.893 51.66-11.146 9.73-39.997 12.27-56.183 12.92 7.392 8.711 21.279 20.927 38.137 33.301C80.4 169.04 97.923 177.61 101.925 177.61h.019a5.999 5.999 0 0 1 6.878 7.076zm83.961 33.43c0-.001 0-.001 0 0zm-83.977-33.35-.009.039a.246.246 0 0 0 .009-.039zm-6.954-7.14-.054.01.054-.01z" fill="#ff002a"/><path d="M43.498 267.059A5.998 5.998 0 0 1 38 258.663c12.894-29.606 99.854-117.887 174.174-191.49 8.164-8.085 14.062-13.927 16.812-16.754a6 6 0 0 1 8.484-.119 5.998 5.998 0 0 1 .119 8.484c-2.827 2.908-8.76 8.784-16.971 16.916-43.21 42.793-157.989 156.465-171.616 187.754a6.001 6.001 0 0 1-5.504 3.605z"/><path d="M110.513 185.133a5.978 5.978 0 0 1-4.247-1.762C82.004 159.053 85.544 83.453 89.579 58.666a6 6 0 1 1 11.844 1.928c-4.157 25.537-6.223 94.696 13.338 114.301a5.999 5.999 0 0 1-4.248 10.238z"/><path d="M181.064 201.677c-28.652 0-60.393-3.933-74.789-18.297a5.999 5.999 0 0 1-.009-8.485 5.997 5.997 0 0 1 8.485-.009c19.207 19.164 85.701 15.84 113.084 11.382a6 6 0 0 1 1.928 11.844c-10.001 1.628-28.589 3.565-48.699 3.565z"/></svg></g><g transform="translate(1011.4285714285714 437.1428571428571) rotate(0.0 485.35714285714283 673.9285714285714) scale(2.1430321808056854 2.1456406767080076)"><svg width="452.963" height="628.184" viewBox="0 0 452.963 628.184"><path d="M446.963 481.975v140.209H26.465V6h420.498v396.73" fill="#fff"/><path d="M446.964 628.184H26.466a6 6 0 0 1-6-6V6a6 6 0 0 1 6-6h420.498a6 6 0 0 1 6 6v396.73a6 6 0 0 1-12 0V12H32.466v604.184h408.498V481.975a6 6 0 0 1 12 0v140.209a6 6 0 0 1-6 6z"/><path d="M46.93 57.057H6a6 6 0 0 1 0-12h40.93a6 6 0 0 1 0 12zm0 45.463H6a6 6 0 0 1 0-12h40.93a6 6 0 0 1 0 12zm0 45.463H6a6 6 0 0 1 0-12h40.93a6 6 0 0 1 0 12zm0 344.218H6a6 6 0 0 1 0-12h40.93a6 6 0 0 1 0 12zm0 45.463H6a6 6 0 0 1 0-12h40.93a6 6 0 0 1 0 12zm0 45.463H6a6 6 0 0 1 0-12h40.93a6 6 0 0 1 0 12zm152.222-436.771c-2.452 0-4.935-.45-7.099-1.606-2.878-1.537-4.826-4.121-5.486-7.276-.708-3.383.368-6.426 1.238-8.421 3.777-8.67 10.398-14.861 16.801-20.849 3.719-3.478 7.231-6.763 10.099-10.419.722-.921 1.052-1.486 1.202-1.807-.834-.454-2.922-1.02-5.693-.842-28.752 1.803-56.343 15.074-75.7 36.41a6 6 0 1 1-8.887-8.064c21.437-23.629 51.994-38.327 83.837-40.323 10.443-.652 17.899 4.012 18.524 11.612.37 4.477-2.015 8.09-3.84 10.418-3.438 4.385-7.458 8.144-11.346 11.779-5.765 5.391-11.21 10.483-13.997 16.88-.084.191-.152.357-.208.502 1.056.083 2.8-.075 4.544-.779 7.6-3.069 14.566-7.474 21.941-12.137 4.168-2.636 8.479-5.361 12.926-7.833 16.149-8.97 30.802-11.869 43.553-8.62 1.244.317 4.55 1.16 6.534 4.263 3.693 5.78-.943 10.808-2.689 12.7-.253.275-.571.62-.848.939.154.088.314.153.445.169 1.638.206 3.867-.604 6.223-1.458.607-.22 1.215-.44 1.819-.647 13.586-4.659 28.718-3.596 41.52 2.914a6 6 0 1 1-5.439 10.696c-9.78-4.974-21.812-5.817-32.188-2.259a96.17 96.17 0 0 0-1.624.578c-3.241 1.175-7.281 2.634-11.771 2.087-4.017-.493-7.791-2.953-9.852-6.421-1.739-2.929-2.056-6.333-.865-9.341.499-1.263 1.198-2.348 1.938-3.297-8.884-1.036-19.267 1.708-30.928 8.187-4.15 2.305-8.314 4.938-12.341 7.484-7.501 4.743-15.257 9.647-23.862 13.122-2.302.933-5.368 1.659-8.481 1.659zm39.328 59.577a6 6 0 0 1-5.555-8.264c3.896-9.57 12.695-15.311 20.636-19.941 3.078-1.795 7.293-4.253 12.138-5.224 6.008-1.202 11.937.247 15.864 3.877 2.116 1.957 3.36 4.198 4.458 6.176.444.801.864 1.559 1.285 2.182 2.52 3.73 7.598 6.146 13.582 6.46 6.184.321 12.674-1.375 18.966-3.02a6 6 0 0 1 3.033 11.611c-6.844 1.789-14.613 3.813-22.628 3.393-9.722-.511-18.281-4.895-22.897-11.727-.715-1.059-1.31-2.13-1.834-3.076-.724-1.305-1.408-2.537-2.111-3.187-1.078-.998-3.183-1.359-5.36-.922-2.667.534-5.405 2.047-8.45 3.823-6.52 3.801-13.092 8.021-15.567 14.101a6.005 6.005 0 0 1-5.56 3.738zm135.959-6.859a6.034 6.034 0 0 1-1.658-.234c-9.436-2.708-19.841-2.757-29.298-.141a5.999 5.999 0 0 1-7.383-4.184 6 6 0 0 1 4.184-7.382 65.987 65.987 0 0 1 35.808.172 6 6 0 0 1-1.653 11.769z"/></svg></g><g transform="translate(2787.8571428571427 1532.142857142857) rotate(34.84418666760118 -115.71428571428555 153.21428571428567) scale(-2.1591104464960407 2.155761561716086)"><svg width="107.187" height="142.144" viewBox="0 0 107.187 142.144"><ellipse cx="53.729" cy="71.128" fill="#fff" rx="36.038" ry="77.439" transform="matrix(.8324 -.5541 .5541 .8324 -30.4105 41.6905)"/><path d="M93.62 142.078c-8.626 0-21.451-4.979-29.106-8.697-10.954-5.322-31.469-17.46-45.779-38.959C4.345 72.804.958 49.383.221 37.347.034 34.314-1.34 7.55 7.493 1.67c8.837-5.88 32.993 5.716 35.721 7.058 10.819 5.325 31.118 17.487 45.51 39.106 14.311 21.498 17.592 45.107 18.273 57.268.619 11.029-.166 30.914-7.032 35.485-1.577 1.049-3.776 1.491-6.345 1.491zM14.346 11.964c-3.152 7.477-6.48 44.473 14.378 75.809 20.107 30.207 55.457 41.94 64.301 42.387 3-8.328 5.818-45.468-14.29-75.677C57.896 23.18 22.533 11.964 14.371 11.964h-.025z"/><path d="M96.643 141.593a6.004 6.004 0 0 1-5.521-3.644c-16.73-39.153-36.197-68.082-65.094-96.73a6 6 0 0 1 8.449-8.521C64.54 62.503 84.78 92.57 102.157 133.234a6 6 0 0 1-5.514 8.359z"/></svg></g><g transform="translate(1862.142857142857 2198.5714285714284) rotate(98.98480815082729 280.71428571428567 -605.3571428571429) translate(0.0 -0.0) scale(2.138653301443999 -2.135422847739438)"><svg width="261.513" height="440.528" viewBox="0 0 261.513 440.528"><path d="M169.113 6 89.319 519.303c-2.716 17.472 10.065 33.965 28.546 36.838l20.473 3.183c18.482 2.873 35.666-8.962 38.382-26.434l79.794-513.303C235.903 33.782 185.752 27.471 169.113 6z" fill="#fff"/><path d="M143.913 565.757c-2.154 0-4.324-.167-6.496-.504l-20.474-3.183c-21.721-3.377-36.772-22.975-33.553-43.688L163.185 5.078a5.999 5.999 0 0 1 10.671-2.753c6.756 8.717 21.084 15.411 38.327 17.906 16.73 2.42 32.412.28 40.929-5.585a6.001 6.001 0 0 1 9.332 5.863L182.65 533.812c-1.569 10.097-7.183 18.928-15.805 24.866-6.748 4.647-14.713 7.079-22.932 7.079zm29.374-547.548L95.248 520.224c-2.203 14.175 8.356 27.628 23.539 29.988l20.474 3.183c7.415 1.153 14.797-.481 20.778-4.6 5.876-4.047 9.695-10.023 10.753-16.826L248.85 29.837c-10.599 3.462-24.13 4.332-38.385 2.27-14.917-2.158-27.86-7.058-37.178-13.898z"/><path d="M72.794 98.566 6.276 526.469c-2.264 14.565 9.645 28.509 26.601 31.145l18.782 2.92c16.956 2.636 32.536-7.035 34.8-21.6l66.518-427.903c-18.687 11.599-64.678 5.688-80.183-12.465z" fill="#fff"/><path d="M57.19 566.964c-2.122 0-4.277-.163-6.453-.501l-18.782-2.92c-9.617-1.495-18.192-6.158-24.148-13.131-6.179-7.234-8.827-16.064-7.459-24.865L66.866 97.644a6 6 0 0 1 10.491-2.975c13.854 16.221 56.852 20.95 72.457 11.264a5.999 5.999 0 0 1 9.093 6.02L92.389 539.855c-2.471 15.892-17.617 27.109-35.199 27.109zm19.883-456.858L12.205 527.39c-.822 5.289.856 10.696 4.727 15.228 4.093 4.792 10.083 8.012 16.867 9.067l18.782 2.92c13.654 2.123 26.197-5.321 27.95-16.593l64.884-417.387c-9.606 2.632-21.77 3.135-34.587 1.268-13.421-1.955-25.15-6.102-33.755-11.787z"/></svg></g><g transform="translate(1866.4285714285713 940.7142857142857) rotate(0.0 397.5000000000001 241.0714285714286) scale(2.1264815156597314 2.1328658512694187)"><svg width="373.857" height="226.054" viewBox="0 0 373.857 226.054"><path d="M325.46 136.9c-26.686 0-48.396-21.71-48.396-48.396s21.711-48.396 48.396-48.396 48.396 21.71 48.396 48.396-21.71 48.396-48.396 48.396zm0-84.793c-20.069 0-36.396 16.327-36.396 36.396S305.391 124.9 325.46 124.9s36.396-16.327 36.396-36.396-16.326-36.397-36.396-36.397z"/><path d="M6 6v70.856c0 56.943 37.742 105.064 89.573 120.731v22.467h117.648v-22.467c51.831-15.667 89.573-63.788 89.573-120.731V6z" fill="#fff"/><path d="M213.221 226.054H95.573a6 6 0 0 1-6-6V201.96c-24.866-8.476-47.114-24.561-63.014-45.647C9.184 133.269 0 105.793 0 76.856V6a6 6 0 0 1 6-6h296.795a6 6 0 0 1 6 6v70.856c0 28.937-9.184 56.412-26.56 79.456-15.899 21.087-38.147 37.171-63.014 45.647v18.094a6 6 0 0 1-6 6.001zm-111.648-12h105.648v-16.467a6 6 0 0 1 4.264-5.743c24.163-7.304 45.887-22.489 61.169-42.756 15.793-20.945 24.141-45.922 24.141-72.231V12H12v64.856c0 26.309 8.348 51.286 24.141 72.231 15.282 20.268 37.006 35.452 61.169 42.756a6 6 0 0 1 4.264 5.743v16.468z"/><path d="M11.992 38.597h284.811v20.664H11.992z" fill="#17adff"/></svg></g><g transform="translate(165.0 756.4285714285714) rotate(0.0 750.0 514.2857142857142) scale(2.1467366025746526 2.1449618867084754)"><svg width="698.735" height="479.529" viewBox="0 0 698.735 479.529"><path d="M619.368 105.586c-46.801-12.891-96.142 12.611-120.004 58.461a206.603 206.603 0 0 0-52.059-31.103v-25.871H251.382v25.871c-52.458 21.628-94.06 64.208-114.391 117.322l-.015-.049c-25.403 0-26.972-24.368-47.57-63.998-18.844-36.256-46.177-46.949-71.964-48.812 0 0-5.676 17.327-11.442 36.727 26.637 4.929 40.71 17.81 34.031 74.161-9.542 80.515 48.046 107.58 88.479 112.406 14.037 48.837 55.492 86.068 106.635 93.957v18.872h228.397v-18.872c61.315-9.458 108.706-61.092 111.615-124.337 2.682.232 5.368.361 8.054.361 18.874 0 37.724-5.714 54.809-16.848 24.228-15.789 42.027-40.664 50.117-70.042 16.834-61.128-14.016-123.127-68.769-138.206zm40.53 130.432c-6.053 21.981-19.26 40.519-37.186 52.202-15.249 9.938-32.344 13.841-48.873 11.309-5.187-43.704-23.995-83.23-52.076-114.201 13.3-31.931 42.223-52.704 72.304-52.704 5.728 0 11.502.754 17.213 2.326 39.183 10.79 60.993 56.129 48.618 101.068z" fill="#fff"/><path d="M463.542 479.529H235.145a6 6 0 0 1-6-6v-13.825c-49.34-9.53-89.964-45.598-105.259-93.573-15.863-2.384-41.897-9.237-62.5-28.91-22.613-21.593-31.804-51.75-27.313-89.632 3.011-25.406 1.763-42.662-3.815-52.756-4.42-7.998-11.765-12.286-25.35-14.799a5.998 5.998 0 0 1-4.659-7.61c5.724-19.257 11.435-36.712 11.491-36.886a5.996 5.996 0 0 1 6.135-4.117c34.826 2.517 59.966 19.536 76.855 52.03 5.522 10.625 9.644 20.044 13.28 28.355 9.484 21.674 13.965 30.587 25.021 32.153 20.904-51.31 61.513-92.877 112.35-114.989v-21.896a6 6 0 0 1 6-6h195.924a6 6 0 0 1 6 6v21.896a212.41 212.41 0 0 1 44.248 25.999c12.251-20.627 29.984-37.361 50.545-47.556 23.146-11.475 49.022-14.178 72.863-7.612 57.942 15.958 90.673 81.266 72.96 145.584-8.479 30.791-27.17 56.886-52.627 73.475-17.89 11.659-37.975 17.821-58.084 17.821-.813 0-1.638-.011-2.472-.034-5.5 60.946-51.092 111.458-111.197 123.057v13.824a6 6 0 0 1-5.999 6.001zm-222.397-12h216.396v-12.872a6 6 0 0 1 5.085-5.93c58.986-9.099 103.791-59.012 106.536-118.683a6 6 0 0 1 6.511-5.702c2.594.224 5.13.338 7.537.338 17.777 0 35.597-5.489 51.532-15.875 23-14.988 39.908-38.644 47.61-66.608 15.955-57.938-13.015-116.627-64.578-130.828-21.299-5.867-43.549-3.517-64.347 6.794-20.356 10.093-37.667 27.372-48.742 48.653a5.999 5.999 0 0 1-9.121 1.874 200.494 200.494 0 0 0-50.547-30.2 6 6 0 0 1-3.713-5.547v-19.871H257.382v19.871a6 6 0 0 1-3.713 5.547c-50.912 20.991-91.396 62.514-111.074 113.92a6.029 6.029 0 0 1-6.426 3.798c-21.998-.391-29.212-16.878-39.151-39.592-3.562-8.138-7.598-17.362-12.936-27.631-14.038-27.01-34.486-41.818-62.413-45.15a1642.185 1642.185 0 0 0-8.063 25.828c9.969 2.6 20.658 7.61 27.155 19.366 6.931 12.54 8.592 31.597 5.229 59.972-4.021 33.934 3.947 60.695 23.685 79.541 19.885 18.987 45.844 24.565 59.547 26.201a6.001 6.001 0 0 1 5.056 4.3c13.519 47.029 53.471 82.232 101.784 89.685a6 6 0 0 1 5.085 5.93v12.871zm342.696-161.237c-3.634 0-7.275-.277-10.911-.834a6 6 0 0 1-5.05-5.224c-4.923-41.484-22.407-79.825-50.563-110.878a6 6 0 0 1-1.094-6.337c14.051-33.733 45.334-56.397 77.844-56.397 6.354 0 12.68.855 18.806 2.542 42.373 11.67 66.063 60.319 52.811 108.447h-.001c-6.442 23.394-20.54 43.152-39.694 55.635-13.228 8.62-27.615 13.046-42.148 13.046zm-4.656-12.183c13.759 1.068 27.591-2.666 40.25-10.917 16.698-10.882 29.014-28.201 34.679-48.768h-.001c11.497-41.749-8.433-83.779-44.426-93.692a58.886 58.886 0 0 0-15.62-2.111c-26.633 0-52.442 18.178-65.258 45.597 27.27 31.186 44.609 69.014 50.376 109.891zm80.713-58.092h.01z"/><path d="M442.132 107.074h-185.53c-6.945 0-11.3-7.583-7.72-13.535 12.446-20.696 52.722-35.852 100.485-35.852s88.039 15.157 100.485 35.852c3.58 5.952-.775 13.535-7.72 13.535z" fill="#fff"/><path d="M442.133 113.074h-185.53c-5.475 0-10.354-2.849-13.051-7.62-2.682-4.742-2.61-10.352.189-15.008 13.941-23.183 56.39-38.759 105.626-38.759s91.685 15.576 105.627 38.76c2.8 4.656 2.87 10.267.188 15.008-2.697 4.77-7.576 7.619-13.049 7.619zm-92.766-49.387c-22.492 0-43.738 3.391-61.442 9.806-16.479 5.972-28.519 14.189-33.9 23.138-.752 1.25-.34 2.363-.027 2.916.26.459 1.033 1.526 2.605 1.526h185.53c1.572 0 2.346-1.067 2.605-1.526.312-.552.724-1.666-.027-2.917-5.382-8.948-17.422-17.166-33.901-23.138-17.704-6.414-38.951-9.805-61.443-9.805z"/><circle cx="349.367" cy="31.843" fill="#fff" r="25.843"/><path d="M349.367 63.687c-17.559 0-31.843-14.285-31.843-31.843S331.808 0 349.367 0s31.844 14.285 31.844 31.844-14.285 31.843-31.844 31.843zm0-51.687c-10.941 0-19.843 8.902-19.843 19.844 0 10.941 8.901 19.843 19.843 19.843s19.844-8.902 19.844-19.843c0-10.942-8.903-19.844-19.844-19.844z"/><path d="M538.525 318.221c0-37.83-12.83-72.659-34.367-100.39-34.508 34.261-106.78 44.17-154.791 19.926-58.688-29.637-112.176-35.951-149.638-26.235-24.63 28.665-39.52 65.942-39.52 106.699 0 57.788 46.846 104.634 104.634 104.634H433.89c57.789.001 104.635-46.846 104.635-104.634z" fill="#ff002a"/><path d="M433.89 428.856H264.843c-61.004 0-110.634-49.63-110.634-110.635 0-40.58 14.55-79.862 40.969-110.609a6.009 6.009 0 0 1 3.045-1.898c42.407-10.996 98.483-1.271 153.849 26.688 21.729 10.974 50.515 15.123 78.974 11.384 28.168-3.701 53.275-14.713 68.886-30.211a6.001 6.001 0 0 1 8.966.578c23.309 30.011 35.628 65.998 35.628 104.069-.001 61.003-49.632 110.634-110.636 110.634zM203.056 216.873c-23.776 28.354-36.847 64.266-36.847 101.348 0 54.387 44.247 98.635 98.634 98.635H433.89c54.388 0 98.635-44.248 98.635-98.635 0-33.196-10.078-64.685-29.21-91.48-17.479 14.847-42.815 25.277-70.707 28.942-31.246 4.105-61.766-.359-85.945-12.57-51.991-26.255-104.187-35.768-143.607-26.24z" fill="#ff002a"/><g fill="#fff"><path d="M270.909 381.032c-7.698 0-19.247-7.324-23.083-9.911-7.671-5.174-21.943-16.501-31.338-34.235-9.445-17.83-10.883-35.868-10.899-45.034-.01-5.474.521-23.631 7.763-27.467 7.242-3.833 22.562 5.925 27.084 9.007 7.574 5.162 21.689 16.484 31.135 34.314 9.395 17.734 10.749 35.905 10.72 45.158-.017 5.481-.614 23.651-7.583 27.343-1.087.576-2.378.825-3.799.825zM219.42 275.841c-2.401 7.613-4.447 32.55 7.672 55.428 11.734 22.15 33.405 34.646 41.449 37.299 2.324-8.145 4.159-33.094-7.574-55.244-12.12-22.878-33.901-35.193-41.547-37.483zm184.249 103.951a5.98 5.98 0 0 1-4.007-1.536c-3.854-3.46-13.104-13.005-15.774-26.871-2.211-11.483.822-21.799 2.828-26.926 1.58-4.041 5.894-13.561 11.808-14.699 5.89-1.142 13.451 6.097 16.42 9.263 3.766 4.016 10.413 12.467 12.625 23.95.888 4.61 1.001 9.466.337 14.431a6.004 6.004 0 0 1-6.743 5.15 5.999 5.999 0 0 1-5.151-6.743c.493-3.678.417-7.234-.226-10.569-2.236-11.613-10.638-19.674-14.777-22.577-2.767 4.233-7.573 14.837-5.337 26.451 1.982 10.289 9.059 17.562 12.009 20.211a5.999 5.999 0 0 1-4.012 10.465z"/><path d="M451.427 410.355a6 6 0 0 1-3.825-10.625c23.171-19.151 31.604-46.404 32.061-54.812-8.34-1.134-36.699 2.017-59.869 21.167-16.498 13.635-24.703 31.137-28.125 40.356a6 6 0 1 1-11.25-4.176c3.842-10.347 13.071-30.008 31.73-45.429 17.238-14.248 36.457-19.91 46.379-22.018 5.874-1.248 25.472-4.796 31.026 1.925 5.556 6.721-1.619 25.3-3.951 30.834-3.938 9.348-13.118 27.156-30.356 41.403a5.978 5.978 0 0 1-3.82 1.375zM326.23 336.306c-16.066 0-29.138-13.071-29.138-29.138s13.071-29.137 29.138-29.137 29.137 13.071 29.137 29.137-13.07 29.138-29.137 29.138zm0-46.274c-9.45 0-17.138 7.688-17.138 17.137s7.688 17.138 17.138 17.138c9.449 0 17.137-7.688 17.137-17.138s-7.688-17.137-17.137-17.137zm-9.77 114.07c-12.045 0-21.844-9.799-21.844-21.843s9.799-21.843 21.844-21.843c12.044 0 21.843 9.799 21.843 21.843-.001 12.045-9.799 21.843-21.843 21.843zm0-31.686c-5.428 0-9.844 4.416-9.844 9.843 0 5.428 4.416 9.843 9.844 9.843s9.843-4.416 9.843-9.843c-.001-5.427-4.416-9.843-9.843-9.843zm132.31-69.802c-12.044 0-21.843-9.799-21.843-21.843s9.799-21.843 21.843-21.843c12.045 0 21.844 9.799 21.844 21.843s-9.799 21.843-21.844 21.843zm0-31.686c-5.428 0-9.843 4.416-9.843 9.843 0 5.428 4.415 9.843 9.843 9.843s9.844-4.416 9.844-9.843c0-5.428-4.416-9.843-9.844-9.843z"/></g></svg></g><g transform="translate(2217.8571428571427 1287.857142857143) rotate(0.0 248.57142857142867 248.57142857142856) scale(2.1483112606697925 2.1483112606697916)"><svg width="231.411" height="231.411" viewBox="0 0 231.411 231.411"><circle cx="115.705" cy="115.705" fill="#fff" r="109.705"/><path d="M115.705 231.411C51.905 231.411 0 179.505 0 115.705S51.905 0 115.705 0 231.41 51.905 231.41 115.705s-51.905 115.706-115.705 115.706zm0-219.411C58.521 12 12 58.522 12 115.705c0 57.184 46.521 103.706 103.705 103.706S219.41 172.889 219.41 115.705C219.41 58.522 172.889 12 115.705 12z"/><path d="M164.785 189.641c-6.239 0-11.167-3.805-14.197-6.988-5.242-5.508-29.238-35.99-16.741-47.884 12.504-11.896 41.756 13.581 46.999 19.088 4.86 5.107 6.906 10.512 6.081 16.064-.658 4.429-3.104 8.605-7.477 12.766-5.387 5.126-10.341 6.954-14.665 6.954zm-5.504-15.261c4.642 4.878 7.535 3.763 11.896-.387 2.328-2.215 3.633-4.179 3.88-5.838.253-1.707-.724-3.734-2.905-6.026-8.702-9.144-25.325-19.395-29.952-18.584-1.04 4.576 8.378 21.69 17.081 30.835zM89.129 99.773c-14.104.001-34.301-17.727-38.57-22.213-5.129-5.39-11.768-16.302 1.4-28.835 13.17-12.53 23.741-5.363 28.87.027 4.012 4.215 10.416 12.736 14.994 21.484 6.506 12.429 7.092 21.313 1.74 26.406-2.321 2.21-5.22 3.131-8.434 3.131zM66.538 53.81c-2.012 0-3.943 1.359-6.307 3.608-5.478 5.213-4.681 7.982-.979 11.87 8.707 9.149 25.32 19.397 29.959 18.579 1.051-4.57-8.366-21.692-17.074-30.842h-.001c-2.13-2.239-3.893-3.215-5.598-3.215zm30.684 151.745c-2.458 0-5.239-.417-8.388-1.373-5.775-1.754-9.836-4.386-12.414-8.048-3.23-4.589-3.83-10.337-1.781-17.083 2.21-7.276 16.901-43.175 33.416-38.165 16.509 5.014 8.761 43.026 6.552 50.302-1.771 5.831-6.267 14.367-17.385 14.367zm7.312-53.074c-4.494 1.349-14.744 17.978-18.413 30.058-.92 3.027-.882 5.277.111 6.688.966 1.372 3.014 2.54 6.088 3.474 7.233 2.197 9.244.137 10.804-4.999 3.668-12.081 4.394-31.601 1.41-35.221zM80.38 180.794h.01zm46.157-89.789c-1.053 0-2.116-.153-3.188-.479-16.516-5.015-8.77-43.028-6.561-50.304 2.162-7.12 8.39-18.272 25.781-12.992 17.395 5.283 16.365 18.015 14.204 25.134-2.065 6.805-15.054 38.641-30.236 38.641zm7.76-53.165c-3.498 0-4.884 2.11-6.025 5.869-3.67 12.087-4.394 31.617-1.402 35.225 4.493-1.336 14.752-17.969 18.423-30.056 1.957-6.446-.442-8.414-6.209-10.165-1.941-.59-3.506-.873-4.787-.873zm16.736 12.781h.01zm16.805 70.102c-.923 0-1.843-.013-2.758-.041-14.022-.428-22.051-4.275-23.861-11.435-1.812-7.16 3.421-14.362 15.553-21.406 8.537-4.957 18.498-8.751 24.14-10.178 7.214-1.825 19.979-2.256 24.437 15.361 4.456 17.617-6.979 23.308-14.191 25.133-5.121 1.295-14.294 2.566-23.32 2.566zm21.846-8.383h.01zm-36.719-6.064c3.475 3.151 23.009 3.344 35.248.247 6.531-1.652 6.978-4.721 5.502-10.557-1.853-7.324-4.656-7.986-9.86-6.67-12.24 3.097-29.333 12.554-30.89 16.98zM44.059 154.598c-6.796 0-14.685-3.134-17.994-16.217-4.457-17.625 6.978-23.317 14.189-25.142 7.374-1.864 45.708-7.817 49.94 8.917 4.233 16.734-32.319 29.729-39.691 31.595-1.859.469-4.086.847-6.444.847zm19.313-31.948c-6.676 0-14.271.728-20.175 2.222-6.531 1.652-6.977 4.723-5.499 10.565 1.854 7.332 4.66 7.996 9.861 6.679 12.246-3.098 29.343-12.562 30.89-16.989-1.795-1.635-7.904-2.477-15.077-2.477zm-21.646-3.595h.01z"/></svg></g><g transform="translate(1568.5714285714284 1500.0) rotate(0.0 335.3571428571429 112.5) scale(2.145949229446537 2.14351040317049)"><svg width="312.549" height="104.968" viewBox="0 0 312.549 104.968"><g><g><path d="M157.279 75.907H6a6 6 0 0 1 0-12h151.279a6 6 0 0 1 0 12zM183.553 12h-75.789a6 6 0 0 1 0-12h75.789a6 6 0 0 1 0 12zm81.754 0h-45.112a6 6 0 0 1 0-12h45.112a6 6 0 0 1 0 12zm41.242 92.968H123.931a6 6 0 0 1 0-12h182.617a6 6 0 0 1 .001 12z"/></g></g></svg></g></svg>